<svg width="165" height="110" viewBox="0 0 165 110" fill="none" xmlns="http://www.w3.org/2000/svg">
<path d="M60.357 2.289C57.428 -0.639997 52.679 -0.641001 49.751 2.288L2.197 49.836C0.79 51.243 0 53.151 0 55.14C0 57.129 0.79 59.036 2.196 60.443L49.544 107.793C51.009 109.258 52.928 109.99 54.848 109.99C56.767 109.99 58.687 109.258 60.151 107.794C63.081 104.865 63.081 100.116 60.152 97.188L18.107 55.14L60.357 12.895C63.286 9.966 63.286 5.217 60.357 2.289Z" fill="white"/>
<path d="M162.598 49.639L115.243 2.28699C112.315 -0.641006 107.566 -0.642006 104.637 2.28799C101.708 5.21699 101.708 9.96599 104.638 12.895L146.689 54.943L104.44 97.186C101.51 100.115 101.51 104.864 104.439 107.792C105.904 109.257 107.823 109.989 109.743 109.989C111.662 109.989 113.582 109.257 115.046 107.793L162.6 60.246C164.007 58.84 164.797 56.932 164.797 54.942C164.795 52.954 164.005 51.046 162.598 49.639Z" fill="white"/>
</svg>
