<svg width="25" height="24" viewBox="0 0 25 24" fill="none" xmlns="http://www.w3.org/2000/svg">
<path d="M18.3563 4.2872C17.5762 4.2872 16.9521 4.91807 16.9521 5.69138C16.9521 6.47149 17.583 7.09557 18.3563 7.09557C19.1364 7.09557 19.7605 6.4647 19.7605 5.69138C19.7605 4.91807 19.1296 4.2872 18.3563 4.2872Z" fill="white"/>
<path d="M12.1015 6.09158C8.84546 6.09158 6.19312 8.74393 6.19312 12C6.19312 15.2561 8.84546 17.9084 12.1015 17.9084C15.3576 17.9084 18.01 15.2561 18.01 12C18.01 8.74393 15.3576 6.09158 12.1015 6.09158ZM12.1015 15.7852C10.0122 15.7852 8.31635 14.0893 8.31635 12C8.31635 9.91069 10.0122 8.21482 12.1015 8.21482C14.1909 8.21482 15.8867 9.91069 15.8867 12C15.8867 14.0893 14.1841 15.7852 12.1015 15.7852Z" fill="white"/>
<path d="M16.7891 24H7.21085C3.23573 24 0 20.7643 0 16.7891V7.21085C0 3.23573 3.23573 0 7.21085 0H16.7959C20.7711 0 24.0068 3.23573 24.0068 7.21085V16.7959C24 20.7643 20.7643 24 16.7891 24ZM7.21085 2.2589C4.48389 2.2589 2.2589 4.47711 2.2589 7.21085V16.7959C2.2589 19.5229 4.47711 21.7479 7.21085 21.7479H16.7959C19.5229 21.7479 21.7479 19.5297 21.7479 16.7959V7.21085C21.7479 4.48389 19.5297 2.2589 16.7959 2.2589H7.21085Z" fill="white"/>
</svg>
