<svg width="200" height="200" viewBox="0 0 200 200" fill="none" xmlns="http://www.w3.org/2000/svg">
<path d="M155.99 152.94V148.186C145.051 147.071 142.674 145.261 137.288 130.746C135.816 126.917 134.343 123.088 132.871 119.238H115.873C118.67 126.665 121.09 133.228 123.046 138.593C125.276 145.24 123.825 146.713 113.348 148.165V152.94H155.99ZM191.859 60.3766C193.037 63.0904 194.089 65.8673 195.014 68.6862C195.161 69.0018 195.225 69.3594 195.225 69.717C195.225 71.1686 194.047 72.3257 192.616 72.3257C191.48 72.3257 190.533 71.6104 190.155 70.6006C189.481 68.5179 188.724 66.4563 187.904 64.4157C183.086 52.5297 175.955 41.8639 167.035 32.9441C149.89 15.7989 126.181 5.17513 100.011 5.17513C73.8403 5.17513 50.1525 15.7779 32.9862 32.9441C15.841 50.1315 5.23825 73.8193 5.23825 100.011C5.23825 126.181 15.841 149.89 32.9862 167.035C50.1315 184.18 73.8403 194.804 100.011 194.804C126.181 194.804 149.869 184.201 167.035 167.035C178.605 155.464 205.596 113.979 190.912 99.2953C188.514 96.897 185.211 95.4034 181.572 95.4034C177.932 95.4034 174.629 96.897 172.231 99.2953C169.833 101.693 168.339 104.996 168.339 108.636V113.327L172.168 113.474H172.231C172.294 113.474 172.357 113.474 172.441 113.474C173.935 113.474 175.155 112.254 175.155 110.76C175.155 109.267 173.956 108.047 172.441 108.047C172.378 108.047 172.315 108.047 172.231 108.047H172.168L171.474 108.068C171.558 106.595 171.958 105.186 172.631 103.902C176.291 104.008 179.236 107.037 179.236 110.739C179.236 114.526 176.186 117.577 172.399 117.577C172.231 117.577 172.063 117.577 171.894 117.555L37.5092 112.654C36.4574 112.654 35.5948 111.791 35.5948 110.739C35.5948 109.688 36.4574 108.825 37.5092 108.825L72.8306 107.542L102.03 36.6046C110.529 59.5982 119.007 82.6128 127.674 105.543L163.627 104.218C164.447 100.894 166.172 97.9278 168.507 95.5717C171.852 92.2268 176.459 90.1441 181.55 90.1441C186.62 90.1441 191.249 92.2268 194.593 95.5717C211.528 112.507 183.865 157.568 170.716 170.716C152.624 188.808 127.611 200 100.011 200C72.3888 200 47.3967 188.808 29.3047 170.716C11.1918 152.624 0 127.611 0 100.011C0 72.3888 11.1918 47.3967 29.2837 29.2837C47.3756 11.1918 72.3888 0 99.9895 0C127.611 0 152.603 11.1918 170.695 29.2837C179.594 38.1614 186.81 48.6799 191.859 60.3766ZM163.101 113.117V108.615C163.101 108.531 163.101 108.446 163.101 108.362L157.589 108.573C156.39 108.573 155.422 109.54 155.422 110.739C155.422 111.939 156.39 112.906 157.589 112.906L163.101 113.117ZM168.318 120.143V121.742C168.318 121.805 168.318 121.889 168.318 121.952V128.474V129.568C168.318 130.998 167.14 132.176 165.71 132.176C164.279 132.176 163.101 130.998 163.101 129.568V128.032V128.011V121.973V120.143H168.318ZM86.5257 107.037L111.244 106.132L96.7708 65.9724H96.4342C91.0487 79.6255 85.7263 93.7625 80.6564 107.037H86.5257ZM68.0341 119.238L63.3007 130.746C57.2841 145.388 54.9069 146.482 44.0307 148.186V152.961H81.1192V148.186C68.3917 146.839 67.0243 144.925 70.6427 134.911C72.3046 129.799 74.0297 124.792 76.0703 119.259H68.0341V119.238Z" fill="white"/>
</svg>
