<svg width="24" height="24" viewBox="0 0 24 24" fill="none" xmlns="http://www.w3.org/2000/svg">
<path d="M0 24L1.72301 17.5828C0.746184 15.8259 0.237422 13.8587 0.237422 11.8575C0.237422 5.31826 5.55568 0 12.095 0C18.6343 0 23.9525 5.31826 23.9525 11.8575C23.9525 18.3968 18.6343 23.7151 12.095 23.7151C10.1345 23.7151 8.19446 23.2199 6.45789 22.277L0 24ZM6.77671 19.8621L7.18372 20.1063C8.67609 20.9949 10.372 21.463 12.0882 21.463C17.3861 21.463 21.7004 17.1487 21.7004 11.8508C21.7004 6.55286 17.3861 2.23855 12.0882 2.23855C6.79028 2.23855 2.47598 6.55286 2.47598 11.8508C2.47598 13.6009 2.96439 15.3239 3.88016 16.8366L4.13115 17.2436L3.16789 20.8253L6.77671 19.8621Z" fill="white"/>
<path fill-rule="evenodd" clip-rule="evenodd" d="M16.4973 13.4991C16.0089 13.2074 15.3713 12.8818 14.8015 13.1193C14.3605 13.3024 14.0756 13.9875 13.7907 14.3403C13.6415 14.5234 13.4719 14.5506 13.2412 14.4556C11.5861 13.7976 10.3176 12.6919 9.40179 11.1656C9.24577 10.9282 9.27291 10.745 9.46284 10.5212C9.74097 10.1956 10.0869 9.82927 10.1615 9.38834C10.2362 8.94741 10.0327 8.43865 9.8495 8.05199C9.61886 7.5568 9.36109 6.84453 8.85911 6.55962C8.39784 6.30185 7.7941 6.4443 7.3871 6.77669C6.68161 7.35329 6.34244 8.24871 6.34922 9.14413C6.34922 9.39512 6.38314 9.6529 6.44419 9.8971C6.58664 10.4873 6.85798 11.0367 7.16324 11.5591C7.39388 11.9525 7.64487 12.3324 7.91621 12.7055C8.80485 13.9061 9.90377 14.9508 11.1791 15.7377C11.8167 16.1311 12.5018 16.4703 13.2141 16.7077C14.0078 16.9723 14.7201 17.2436 15.5816 17.0808C16.4838 16.9112 17.3724 16.355 17.7319 15.4867C17.8405 15.2289 17.8879 14.944 17.8337 14.6727C17.7116 14.1029 16.9518 13.7705 16.4973 13.4991Z" fill="white"/>
</svg>
